<svg width="25" height="23" viewBox="0 0 25 23" fill="none" xmlns="http://www.w3.org/2000/svg">
<path d="M1.25 1H5.25L7.93 14.39C8.02144 14.8504 8.27191 15.264 8.63755 15.5583C9.00318 15.8526 9.4607 16.009 9.93 16H19.65C20.1193 16.009 20.5768 15.8526 20.9425 15.5583C21.3081 15.264 21.5586 14.8504 21.65 14.39L23.25 6H6.25M10.25 21C10.25 21.5523 9.80228 22 9.25 22C8.69772 22 8.25 21.5523 8.25 21C8.25 20.4477 8.69772 20 9.25 20C9.80228 20 10.25 20.4477 10.25 21ZM21.25 21C21.25 21.5523 20.8023 22 20.25 22C19.6977 22 19.25 21.5523 19.25 21C19.25 20.4477 19.6977 20 20.25 20C20.8023 20 21.25 20.4477 21.25 21Z" stroke="white" stroke-width="2" stroke-linecap="round" stroke-linejoin="round"/>
</svg>
