<svg width="250" height="55" viewBox="0 0 250 55" fill="none" xmlns="http://www.w3.org/2000/svg">
<rect x="0.5" y="0.5" width="54" height="54" stroke="#FFCA42"/>
<path d="M31.1836 28.375L31.6758 25.1406H28.5469V23.0312C28.5469 22.1172 28.9688 21.2734 30.375 21.2734H31.8164V18.4961C31.8164 18.4961 30.5156 18.25 29.2852 18.25C26.7188 18.25 25.0312 19.832 25.0312 22.6445V25.1406H22.1484V28.375H25.0312V36.25H28.5469V28.375H31.1836Z" fill="white"/>
<rect x="65.5" y="0.5" width="54" height="54" stroke="#FFCA42"/>
<path d="M100.137 23.5938C100.84 23.0664 101.473 22.4336 101.965 21.6953C101.332 21.9766 100.594 22.1875 99.8555 22.2578C100.629 21.8008 101.191 21.0977 101.473 20.2188C100.77 20.6406 99.9609 20.957 99.1523 21.1328C98.4492 20.3945 97.5 19.9727 96.4453 19.9727C94.4062 19.9727 92.7539 21.625 92.7539 23.6641C92.7539 23.9453 92.7891 24.2266 92.8594 24.5078C89.8008 24.332 87.0586 22.8555 85.2305 20.6406C84.9141 21.168 84.7383 21.8008 84.7383 22.5039C84.7383 23.7695 85.3711 24.8945 86.3906 25.5625C85.793 25.5273 85.1953 25.3867 84.7031 25.1055V25.1406C84.7031 26.9336 85.9688 28.4102 87.6562 28.7617C87.375 28.832 87.0234 28.9023 86.707 28.9023C86.4609 28.9023 86.25 28.8672 86.0039 28.832C86.4609 30.3086 87.832 31.3633 89.4492 31.3984C88.1836 32.3828 86.6016 32.9805 84.8789 32.9805C84.5625 32.9805 84.2812 32.9453 84 32.9102C85.6172 33.9648 87.5508 34.5625 89.6602 34.5625C96.4453 34.5625 100.137 28.9727 100.137 24.0859C100.137 23.9102 100.137 23.7695 100.137 23.5938Z" fill="white"/>
<rect x="130.5" y="0.5" width="54" height="54" stroke="#FFCA42"/>
<path d="M152.641 33V22.4883H149.371V33H152.641ZM150.988 21.082C152.043 21.082 152.887 20.2031 152.887 19.1484C152.887 18.1289 152.043 17.2852 150.988 17.2852C149.969 17.2852 149.125 18.1289 149.125 19.1484C149.125 20.2031 149.969 21.082 150.988 21.082ZM164.84 33H164.875V27.2344C164.875 24.4219 164.242 22.2422 160.938 22.2422C159.355 22.2422 158.301 23.1211 157.844 23.9297H157.809V22.4883H154.68V33H157.949V27.7969C157.949 26.4258 158.195 25.125 159.883 25.125C161.57 25.125 161.605 26.6719 161.605 27.9023V33H164.84Z" fill="white"/>
<rect x="195.5" y="0.5" width="54" height="54" stroke="#FFCA42"/>
<path d="M222.5 23.6074C220.125 23.6074 218.232 25.5371 218.232 27.875C218.232 30.25 220.125 32.1426 222.5 32.1426C224.838 32.1426 226.768 30.25 226.768 27.875C226.768 25.5371 224.838 23.6074 222.5 23.6074ZM222.5 30.6582C220.979 30.6582 219.717 29.4336 219.717 27.875C219.717 26.3535 220.941 25.1289 222.5 25.1289C224.021 25.1289 225.246 26.3535 225.246 27.875C225.246 29.4336 224.021 30.6582 222.5 30.6582ZM227.918 23.459C227.918 22.9023 227.473 22.457 226.916 22.457C226.359 22.457 225.914 22.9023 225.914 23.459C225.914 24.0156 226.359 24.4609 226.916 24.4609C227.473 24.4609 227.918 24.0156 227.918 23.459ZM230.738 24.4609C230.664 23.125 230.367 21.9375 229.402 20.9727C228.438 20.0078 227.25 19.7109 225.914 19.6367C224.541 19.5625 220.422 19.5625 219.049 19.6367C217.713 19.7109 216.562 20.0078 215.561 20.9727C214.596 21.9375 214.299 23.125 214.225 24.4609C214.15 25.834 214.15 29.9531 214.225 31.3262C214.299 32.6621 214.596 33.8125 215.561 34.8145C216.562 35.7793 217.713 36.0762 219.049 36.1504C220.422 36.2246 224.541 36.2246 225.914 36.1504C227.25 36.0762 228.438 35.7793 229.402 34.8145C230.367 33.8125 230.664 32.6621 230.738 31.3262C230.812 29.9531 230.812 25.834 230.738 24.4609ZM228.957 32.7734C228.697 33.5156 228.104 34.0723 227.398 34.3691C226.285 34.8145 223.688 34.7031 222.5 34.7031C221.275 34.7031 218.678 34.8145 217.602 34.3691C216.859 34.0723 216.303 33.5156 216.006 32.7734C215.561 31.6973 215.672 29.0996 215.672 27.875C215.672 26.6875 215.561 24.0898 216.006 22.9766C216.303 22.2715 216.859 21.7148 217.602 21.418C218.678 20.9727 221.275 21.084 222.5 21.084C223.688 21.084 226.285 20.9727 227.398 21.418C228.104 21.6777 228.66 22.2715 228.957 22.9766C229.402 24.0898 229.291 26.6875 229.291 27.875C229.291 29.0996 229.402 31.6973 228.957 32.7734Z" fill="white"/>
</svg>
