<svg width="18" height="16" viewBox="0 0 18 16" fill="none" xmlns="http://www.w3.org/2000/svg">
<path d="M16.1497 4.33381C16.1611 4.4937 16.1611 4.65363 16.1611 4.81352C16.1611 9.69039 12.4492 15.3097 5.66497 15.3097C3.57486 15.3097 1.63325 14.7043 0 13.6536C0.296965 13.6879 0.582469 13.6993 0.890859 13.6993C2.61545 13.6993 4.20303 13.1168 5.4708 12.1232C3.84898 12.0889 2.48984 11.0267 2.02155 9.56478C2.25 9.59902 2.47841 9.62187 2.71828 9.62187C3.04949 9.62187 3.38073 9.57617 3.68909 9.49626C1.99874 9.15359 0.730934 7.66884 0.730934 5.87569V5.83003C1.22203 6.10414 1.79314 6.27546 2.39843 6.29827C1.40477 5.63582 0.753785 4.50513 0.753785 3.22593C0.753785 2.54067 0.936492 1.9125 1.25631 1.36427C3.0723 3.60284 5.80201 5.06475 8.86289 5.22467C8.8058 4.95056 8.77152 4.66505 8.77152 4.37952C8.77152 2.3465 10.4162 0.69043 12.4606 0.69043C13.5228 0.69043 14.4822 1.13586 15.156 1.8554C15.9898 1.69551 16.7893 1.38712 17.4974 0.964543C17.2233 1.82116 16.6408 2.5407 15.8756 2.99752C16.618 2.91761 17.3375 2.71198 17.9999 2.42648C17.4975 3.15741 16.8693 3.8084 16.1497 4.33381Z" fill="#1B3764"/>
</svg>
