<svg width="45" height="45" viewBox="0 0 45 45" fill="none" xmlns="http://www.w3.org/2000/svg">
<rect width="45" height="45" fill="white"/>
<path d="M28.3438 19.75C28.9688 19.2812 29.5312 18.7188 29.9688 18.0625C29.4062 18.3125 28.75 18.5 28.0938 18.5625C28.7812 18.1562 29.2812 17.5312 29.5312 16.75C28.9062 17.125 28.1875 17.4062 27.4688 17.5625C26.8438 16.9062 26 16.5312 25.0625 16.5312C23.25 16.5312 21.7812 18 21.7812 19.8125C21.7812 20.0625 21.8125 20.3125 21.875 20.5625C19.1562 20.4062 16.7188 19.0938 15.0938 17.125C14.8125 17.5938 14.6562 18.1562 14.6562 18.7812C14.6562 19.9062 15.2188 20.9062 16.125 21.5C15.5938 21.4688 15.0625 21.3438 14.625 21.0938V21.125C14.625 22.7188 15.75 24.0312 17.25 24.3438C17 24.4062 16.6875 24.4688 16.4062 24.4688C16.1875 24.4688 16 24.4375 15.7812 24.4062C16.1875 25.7188 17.4062 26.6562 18.8438 26.6875C17.7188 27.5625 16.3125 28.0938 14.7812 28.0938C14.5 28.0938 14.25 28.0625 14 28.0312C15.4375 28.9688 17.1562 29.5 19.0312 29.5C25.0625 29.5 28.3438 24.5312 28.3438 20.1875C28.3438 20.0312 28.3438 19.9062 28.3438 19.75Z" fill="#1B3764"/>
</svg>
